<svg id="Layer_2" data-name="Layer 2" xmlns="http://www.w3.org/2000/svg" xmlns:xlink="http://www.w3.org/1999/xlink" viewBox="0 0 696.59 502.85"><defs><style>.cls-1{fill:none;}.cls-2{fill:url(#radial-gradient);}.cls-3{fill:url(#radial-gradient-2);}.cls-4{fill:url(#radial-gradient-3);}.cls-5{clip-path:url(#clip-path);}.cls-6{fill:url(#linear-gradient);}.cls-7{fill:url(#linear-gradient-2);}.cls-8{fill:url(#radial-gradient-4);}.cls-9{fill:url(#linear-gradient-3);}.cls-10{fill:url(#linear-gradient-4);}.cls-11{fill:url(#linear-gradient-5);}.cls-12{fill:url(#linear-gradient-6);}.cls-13{fill:url(#linear-gradient-7);}.cls-14{fill:#5f212b;}.cls-15{fill:#d0c5bc;}.cls-16{fill:#bbb0a5;}.cls-17{fill:#f4a1b5;}.cls-18{fill:#ec7a97;}.cls-19{fill:#f6dec6;}.cls-20{fill:#d7c5b0;}.cls-21{fill:#fff;}.cls-22{fill:#eb5d5b;}</style><radialGradient id="radial-gradient" cx="323.17" cy="-487.83" r="348.29" gradientTransform="matrix(1.6, 0, 0, -1.28, -157.07, -233.42)" gradientUnits="userSpaceOnUse"><stop offset="0" stop-color="#fff"/><stop offset="1" stop-color="#c6c6c6"/></radialGradient><radialGradient id="radial-gradient-2" cx="324.7" cy="-390.73" r="339.59" gradientTransform="matrix(1.55, 0, 0, -0.99, -156.36, -187.36)" gradientUnits="userSpaceOnUse"><stop offset="0" stop-color="#4e4e4e"/><stop offset="1" stop-color="#1a1a1a"/></radialGradient><radialGradient id="radial-gradient-3" cx="220.58" cy="-363.46" r="330.88" gradientTransform="matrix(0.65, -0.71, -1.12, -0.98, -200.95, 1.58)" gradientUnits="userSpaceOnUse"><stop offset="0" stop-color="#00a5bb"/><stop offset="1" stop-color="#004668"/></radialGradient><clipPath id="clip-path" transform="translate(-11.71 -113.99)"><polygon class="cls-1" points="464.51 119.22 703.07 119.22 703.07 509.31 380.9 509.31 464.51 119.22"/></clipPath><linearGradient id="linear-gradient" x1="454.4" y1="56.13" x2="331.97" y2="-525.52" gradientTransform="matrix(1, 0, 0, -1, 1.22, -73.75)" gradientUnits="userSpaceOnUse"><stop offset="0" stop-color="#fff" stop-opacity="0.19"/><stop offset="1" stop-color="#fff" stop-opacity="0"/></linearGradient><linearGradient id="linear-gradient-2" x1="382" y1="-778.21" x2="382" y2="-647.6" gradientTransform="matrix(0.82, 0, 0, -0.73, 47.45, 24.55)" xlink:href="#radial-gradient"/><radialGradient id="radial-gradient-4" cx="346.06" cy="-2093.78" r="104.73" gradientTransform="matrix(1.16, 0, 0, -0.17, -42.79, 270.87)" gradientUnits="userSpaceOnUse"><stop offset="0" stop-color="#fff"/><stop offset="1" stop-color="#787878"/></radialGradient><linearGradient id="linear-gradient-3" x1="350" y1="123.54" x2="350" y2="88.72" gradientTransform="matrix(1, 0, 0, -0.95, 10, 701.15)" xlink:href="#radial-gradient"/><linearGradient id="linear-gradient-4" x1="382" y1="-717.83" x2="382" y2="-770.07" gradientTransform="matrix(0.82, 0, 0, -0.75, 47.45, 26.23)" gradientUnits="userSpaceOnUse"><stop offset="0" stop-opacity="0.39"/><stop offset="1" stop-opacity="0"/></linearGradient><linearGradient id="linear-gradient-5" x1="382" y1="-253.64" x2="382" y2="-305.89" gradientTransform="translate(47.45 1143.72) scale(0.82 2)" xlink:href="#linear-gradient-4"/><linearGradient id="linear-gradient-6" x1="382" y1="-876.98" x2="382" y2="-929.22" gradientTransform="matrix(0.82, 0, 0, -0.45, 47.45, 108.14)" gradientUnits="userSpaceOnUse"><stop offset="0" stop-opacity="0.67"/><stop offset="1" stop-opacity="0"/></linearGradient><linearGradient id="linear-gradient-7" x1="26.12" y1="200.79" x2="670.46" y2="200.79" gradientUnits="userSpaceOnUse"><stop offset="0" stop-color="#fc3537"/><stop offset="1" stop-color="#8439af"/></linearGradient></defs><g id="layer1"><path id="rect2987" class="cls-2" d="M29.12,114H690.88c9.62,0,17.41,7,17.41,15.71V498.82c0,8.68-7.79,15.71-17.41,15.71H29.12c-9.62,0-17.41-7-17.41-15.71V129.7C11.71,121,19.5,114,29.12,114Z" transform="translate(-11.71 -113.99)"/><rect id="rect2991" class="cls-3" x="5.22" y="5.22" width="686.14" height="390.09" rx="12.19"/><rect id="rect4108" class="cls-4" x="26.12" y="26.12" width="644.34" height="348.29"/><g class="cls-5"><path id="rect4173" class="cls-6" d="M30,119.22H690.88a12.16,12.16,0,0,1,12.19,12.14V497.17a12.17,12.17,0,0,1-12.19,12.14H30a12.17,12.17,0,0,1-12.19-12.14V131.36A12.16,12.16,0,0,1,30,119.22Z" transform="translate(-11.71 -113.99)"/></g><path id="rect3102" class="cls-7" d="M288.76,514.53H431.24c0,29,0,52.25,7.13,69.66H281.63C288.76,566.78,288.76,543.56,288.76,514.53Z" transform="translate(-11.71 -113.99)"/><path id="rect3894" class="cls-8" d="M281.63,584.19H438.37q13,13.06,26.12,26.12c8.71,8.71-217.69,8.71-209,0s17.42-17.41,26.12-26.12Z" transform="translate(-11.71 -113.99)"/><path id="path3921" class="cls-9" d="M281.63,584.19H438.37l26.12,24.73c8.71,8.24-217.69,8.24-209,0Z" transform="translate(-11.71 -113.99)"/><path id="path3094" class="cls-10" d="M288.76,610.31H431.24c0-10.88,0-19.59,7.13-26.12H281.63C288.76,590.72,288.76,599.43,288.76,610.31Z" transform="translate(-11.71 -113.99)"/><path id="path3907" class="cls-11" d="M288.76,514.53H431.24c0,29,0,52.25,7.13,69.66H281.63C288.76,566.78,288.76,543.56,288.76,514.53Z" transform="translate(-11.71 -113.99)"/><path id="path3911" class="cls-12" d="M288.76,530.21H431.24c.16-7,.16-7,.16-15.68H288.6c0,8.71,0,8.71.16,15.68Z" transform="translate(-11.71 -113.99)"/></g><rect class="cls-13" x="26.12" y="26.12" width="644.34" height="349.33"/><path class="cls-14" d="M127.45,248.09c-.4-1.3,77.32-26.12,77.32-26.12a2.48,2.48,0,0,1,1.44,4.74S127.77,249.16,127.45,248.09Z" transform="translate(-11.71 -113.99)"/><path class="cls-14" d="M137.21,221.31c-.12-1.36,71-8.91,71-8.91a2.48,2.48,0,0,1,.45,4.93S137.33,222.6,137.21,221.31Z" transform="translate(-11.71 -113.99)"/><path class="cls-15" d="M315.74,202.63h0c-1.2.28-2.4.6-3.61,1q-5.6,1.64-10.88,2.93c-1.82.45-3.63.86-5.41,1.25h0c-20.88,4.53-38.63,5-56,2.23-1.45-.23-2.9-.48-4.34-.76-13.06-45.46,29.17-67.8,41.05-44.9.34.66.69,1.31,1.06,1.95C289.91,188.13,315.74,202.63,315.74,202.63Z" transform="translate(-11.71 -113.99)"/><path class="cls-16" d="M315.74,202.63h0c-1.2.28-2.4.6-3.61,1q-5.6,1.64-10.88,2.93c-5.1-.71-9.87-2.15-13-4.84-9.5-8.2-13.08-34.53-13.08-34.53l2.36-.86C289.91,188.13,315.74,202.63,315.74,202.63Z" transform="translate(-11.71 -113.99)"/><path class="cls-14" d="M261.43,214.18a140.22,140.22,0,0,1-22-1.74c-1.57-.25-3-.5-4.43-.77l-1.49-.28-.42-1.46c-8-28,3.93-49,19.89-55.37,10.7-4.26,20.8-.87,25.74,8.64,11.39,22,38,37.12,38.26,37.27l1.26.71v3.43l-1.91.44c-1.13.26-2.27.56-3.48.92-5.77,1.68-11.3,3.1-16.45,4.22l-.27.05A162.87,162.87,0,0,1,261.43,214.18Zm-24-7.09c.89.16,1.8.31,2.76.46,17.76,2.81,35.28,2.11,55.14-2.2l.27-.06c4.41-1,9.12-2.15,14-3.54-8.6-5.64-26.2-18.69-35.31-36.27-4.46-8.61-13-8.91-19.51-6.32C243.74,163.55,230.24,179.9,237.41,207.09Z" transform="translate(-11.71 -113.99)"/><path class="cls-17" d="M295.83,207.77A181.2,181.2,0,0,1,277,210.86a139.93,139.93,0,0,1-37.18-.86s-6.57-25.5,2.56-31.87a3.7,3.7,0,0,1,4.33-.16C254.08,182.17,263.06,206.47,295.83,207.77Z" transform="translate(-11.71 -113.99)"/><path class="cls-14" d="M295.83,207.77A181.2,181.2,0,0,1,277,210.86c-16.59-4.13-25.33-20.54-28.66-28.51a1.16,1.16,0,0,1,1.94-1.22C257.36,189,268,206.67,295.83,207.77Z" transform="translate(-11.71 -113.99)"/><path class="cls-17" d="M424.11,351.6c0,.55,0,1.08,0,1.62a10.65,10.65,0,0,0,.07,1.6,18.31,18.31,0,0,0,.54,3.06,21.05,21.05,0,0,0,6.39,10.4,52.1,52.1,0,0,0,10.6,7.35l.79.44c4.25,2.31,8.83,4.39,13.54,6.66,2.35,1.15,4.75,2.32,7.19,3.69a53,53,0,0,1,7.41,4.86,26.2,26.2,0,0,1,7,8.12l.68,1.38a10.46,10.46,0,0,1,.55,1.48,15,15,0,0,1,.78,3.1,16.47,16.47,0,0,1,.26,3.17l-.05,1.56c0,.26,0,.54,0,.77l-.09.65a27.48,27.48,0,0,1-3.3,10.26,28.92,28.92,0,0,1-7.06,8.27,37.7,37.7,0,0,1-8.62,5.17,53.83,53.83,0,0,1-8.85,2.91,71.27,71.27,0,0,1-8.78,1.49c-1.46.16-2.92.27-4.4.34L437,440h-1.69L434,440l1.47-19.75a5.61,5.61,0,0,0,.59.07l.77.06,1.62.08c1.09,0,2.19,0,3.28,0a52.25,52.25,0,0,0,6.46-.55c.23,0,.47-.07.7-.12a26,26,0,0,0,10-3.55,11,11,0,0,0,5-7.2l.08-.29a1.34,1.34,0,0,0,0-.19.09.09,0,0,1,0-.05,1.92,1.92,0,0,1,.05-.32,2.49,2.49,0,0,0,0-.65,1.65,1.65,0,0,0-.07-.63c0-.11,0-.22-.05-.34s-.1-.24-.15-.36a11,11,0,0,0-2.73-3.67,38.18,38.18,0,0,0-5.15-4c-1.93-1.31-4.06-2.56-6.21-3.84-4.33-2.55-8.92-5.09-13.47-8.05A64.87,64.87,0,0,1,423.11,376c-.5-.52-1-1.14-1.43-1.71a20.15,20.15,0,0,1-1.37-1.79L419,370.61l-1.1-2a29.88,29.88,0,0,1-3.31-13.35,18.49,18.49,0,0,1,.08-2.24c.06-.75.07-1.5.18-2.22a41.85,41.85,0,0,1,2-8.39,46.35,46.35,0,0,1,8.32-14.52A62.58,62.58,0,0,1,483,307.22a55.51,55.51,0,0,1,14.79,4.94,57.21,57.21,0,0,1,12.72,8.73,54.62,54.62,0,0,0-27.86-11.21,57.76,57.76,0,0,0-29.1,4.77,55.23,55.23,0,0,0-22.47,17.95,38,38,0,0,0-5.92,12.54A33,33,0,0,0,424.11,351.6Z" transform="translate(-11.71 -113.99)"/><path class="cls-18" d="M479.89,408.53l-.05,1.56c0,.26,0,.54,0,.77l-.09.65a27.48,27.48,0,0,1-3.3,10.26,28.92,28.92,0,0,1-7.06,8.27,37.7,37.7,0,0,1-8.62,5.17,53.83,53.83,0,0,1-8.85,2.91,71.27,71.27,0,0,1-8.78,1.49c-1.46.16-2.92.27-4.4.34L437,440l11.87-20.21,3.16-5.36c.81,0,7.09-2.45,11.87-5.92,4.45-3.24,7.59-7.39,3.7-11.28-7.94-7.93-25.72-12-25.89-21.62l.79.44c4.25,2.31,8.83,4.39,13.54,6.66,2.35,1.15,4.75,2.32,7.19,3.69a53,53,0,0,1,7.41,4.86,26.2,26.2,0,0,1,7,8.12l.68,1.38a10.46,10.46,0,0,1,.55,1.48,15,15,0,0,1,.78,3.1A16.47,16.47,0,0,1,479.89,408.53Z" transform="translate(-11.71 -113.99)"/><path class="cls-14" d="M435.34,442h-.19c-.37,0-.69,0-1.24,0l-2-.09,1.82-24.37,2.25.81.3,0,.75.05,1.52.08c1.19,0,2.23,0,3.17,0a50.81,50.81,0,0,0,6.21-.53,24.69,24.69,0,0,0,9.86-3.35,9,9,0,0,0,4.13-6l.06-.22a4.07,4.07,0,0,1,.08-.61h0a2,2,0,0,1,0-.35.89.89,0,0,1,0-.14l0-.17a2.77,2.77,0,0,1-.1-.26,9.11,9.11,0,0,0-2.23-2.88,36.6,36.6,0,0,0-4.89-3.78c-1.91-1.29-4-2.56-6.11-3.78l-3.35-1.95c-3.32-1.92-6.76-3.91-10.19-6.14a68.07,68.07,0,0,1-13.45-11c-.37-.38-.71-.81-1-1.22l-.45-.56a19.73,19.73,0,0,1-1.51-2l-1.35-2-1.11-2a30.27,30.27,0,0,1-3.12-9.4,24.71,24.71,0,0,1-.39-4l0-.79a10.91,10.91,0,0,1,0-1.73c0-.23,0-.45,0-.68s0-.55,0-.78c0-.54.06-1.09.14-1.65a43.87,43.87,0,0,1,2.1-8.79,48.11,48.11,0,0,1,8.67-15.12,64.51,64.51,0,0,1,59.67-21.3,57.21,57.21,0,0,1,15.32,5.11,59.58,59.58,0,0,1,13.16,9l-2.54,3a52.13,52.13,0,0,0-26.84-10.81,55.65,55.65,0,0,0-28.11,4.61,53.46,53.46,0,0,0-21.66,17.29,36.48,36.48,0,0,0-5.62,11.89,32.13,32.13,0,0,0-1,6.3,7.15,7.15,0,0,0,0,.8c0,.21,0,.42,0,.63s0,.44,0,.66a3.56,3.56,0,0,0,0,.6c.06.39.1.68.14,1a9.65,9.65,0,0,0,.34,1.86l0,.16a19,19,0,0,0,5.84,9.41,51.56,51.56,0,0,0,11,7.48c3.14,1.71,6.43,3.27,9.92,4.93l3.54,1.7.1.05c2.33,1.13,4.74,2.31,7.2,3.7a54.13,54.13,0,0,1,7.68,5,28.18,28.18,0,0,1,7.47,8.73l.71,1.43a8.43,8.43,0,0,1,.5,1.3l.13.4a16.32,16.32,0,0,1,.88,3.55,16.66,16.66,0,0,1,.28,3.5l-.06,1.74c0,.23,0,.46,0,.67l-.09.72a29.74,29.74,0,0,1-3.55,11,30.91,30.91,0,0,1-7.53,8.83,39.16,39.16,0,0,1-9.08,5.43,53.7,53.7,0,0,1-9.18,3,70.93,70.93,0,0,1-9,1.54c-1.38.15-2.85.27-4.5.35-.76,0-1.52.06-2.3.08Zm2-19.61-1.17,15.65h.33c.72,0,1.43,0,2.15-.08,1.57-.08,3-.18,4.27-.33a66.92,66.92,0,0,0,8.55-1.45,49.84,49.84,0,0,0,8.5-2.8,35.74,35.74,0,0,0,8.18-4.89,26.87,26.87,0,0,0,6.57-7.69,25.73,25.73,0,0,0,3.07-9.53l.09-.69c0-.06,0-.22,0-.37l.05-1.74a14.31,14.31,0,0,0-.23-2.77l0-.13a13.49,13.49,0,0,0-.69-2.69c0-.13-.1-.3-.15-.47a7.27,7.27,0,0,0-.28-.75l-.69-1.39a24.45,24.45,0,0,0-6.44-7.46,50,50,0,0,0-7.13-4.67c-2.36-1.33-4.72-2.48-7-3.6l-.09,0-3.52-1.68c-3.53-1.68-6.87-3.27-10.09-5a55.66,55.66,0,0,1-11.8-8.09,22.93,22.93,0,0,1-7-11.32,13.75,13.75,0,0,1-.47-2.49c0-.27-.07-.53-.11-.8a6.58,6.58,0,0,1-.08-1.31c0-.16,0-.31,0-.46v-.13c0-.18,0-.36,0-.54q0-.59,0-1.2a35.08,35.08,0,0,1,1.1-7.07,40.36,40.36,0,0,1,6.22-13.16,56.63,56.63,0,0,1,23.27-18.6,61.84,61.84,0,0,1,11.7-3.84,61.7,61.7,0,0,0-12.05,2.92,59.19,59.19,0,0,0-25.67,17.42,43.79,43.79,0,0,0-8,13.9,39.78,39.78,0,0,0-1.91,8c-.06.42-.08.86-.11,1.31,0,.26,0,.51-.05.77s0,.48,0,.76a6.76,6.76,0,0,0,0,1.17l0,.88a21,21,0,0,0,.33,3.44l0,.12a26.48,26.48,0,0,0,2.71,8.17l1,1.89,1.22,1.82A19.2,19.2,0,0,0,423.2,373l.49.6c.28.35.55.69.85,1A64.67,64.67,0,0,0,437.26,385c3.34,2.18,6.74,4.14,10,6l3.37,2c2.12,1.26,4.31,2.55,6.32,3.91a39.9,39.9,0,0,1,5.42,4.21,12.48,12.48,0,0,1,3.21,4.41l.07.16a2.28,2.28,0,0,1,.23.93,3.09,3.09,0,0,1,.08,1.08,2.62,2.62,0,0,1-.09,1v.06a2,2,0,0,1,0,.38l-.11.44A12.82,12.82,0,0,1,460,417.9a28.66,28.66,0,0,1-11.49,4,54.53,54.53,0,0,1-6.69.57c-1,0-2.13,0-3.39,0Z" transform="translate(-11.71 -113.99)"/><path class="cls-15" d="M501.77,288.23c-38.45,34-89.37,6.9-90.36,6.37.45.89,29.28,57.81,31.81,74.65,1.45,9.75,6.7,30.28,6.39,49.28-.18,11.17-2.27,21.82-8.18,29.44a26.89,26.89,0,0,1-5.42,5.28,40.63,40.63,0,0,1-12,5.92c-24.42,7.73-58.66-1.78-78.83,0-15.56,1.39-30.4,7.33-44.86,7.09a39.62,39.62,0,0,1-22.59-7.09c-12.08-8.28-13.84-20.67-10.91-33.89h0A103.1,103.1,0,0,1,275.12,403c1.53-3.12,3.14-6.19,4.77-9.16a91.34,91.34,0,0,0,10.78-45.18c-20.19-6.37-55.54-37.55-70.81-61.1-8.69-13.38-16.75-40.75-16.83-60.36,0-7,1-13.06,3.34-17.09,2.63-4.5,7-6.51,13.49-4.63,1,.3,2,.59,3.07.86,4.18,1.14,8.34,2.1,12.51,2.88,2.56.49,5.14.9,7.72,1.25,20.71,2.77,42.15,1,69-6.9,1.21-.35,2.41-.67,3.61-1,35.19-8.34,62.57,13.67,62.57,13.67h.08c24.25,1.79,53.36-35.84,71.28-53l1.19-1.12c17.82-16.54,32.45-18.45,50.91,0S540.58,253.86,501.77,288.23Z" transform="translate(-11.71 -113.99)"/><path class="cls-16" d="M239.07,224.15a2.47,2.47,0,0,1,2.22-4.42s72.14,37.54,71.52,38.76C312.3,259.51,239.07,224.15,239.07,224.15Z" transform="translate(-11.71 -113.99)"/><path class="cls-16" d="M233,227.94a2.48,2.48,0,0,1,3.38-3.62s66.51,63.41,65.58,64.41C301.32,289.39,233,227.94,233,227.94Z" transform="translate(-11.71 -113.99)"/><path class="cls-16" d="M250.3,219.7c0,7.38-11.58,13.36-25.88,13.36-8.89,0-16.74-2.32-21.39-5.84,0-7,1-13.06,3.34-17.09a40,40,0,0,1,16.56-3.77c4.18,1.14,8.34,2.1,12.51,2.88,2.56.49,5.14.9,7.72,1.25C247.58,212.88,250.3,216.12,250.3,219.7Z" transform="translate(-11.71 -113.99)"/><path class="cls-16" d="M452.54,164s-41.14,54.61-53.22,59.13-22-4.45-22-4.45l1-2.41c24.25,1.79,53.36-35.84,71.28-53Z" transform="translate(-11.71 -113.99)"/><path class="cls-16" d="M320.46,287.64a40.29,40.29,0,0,0,7.79,1.91c2.87.19,9.23,3.44,9.23,3.44s-3.4-7.74-6.9-8.42S320.46,287.64,320.46,287.64Z" transform="translate(-11.71 -113.99)"/><path class="cls-16" d="M303,225.63s8.45-5.34,14.5-3.67,10.51,7.74,12.77,9.52c0,0-3.54-11.66-7.44-13.49S307.24,217,303,225.63Z" transform="translate(-11.71 -113.99)"/><path class="cls-16" d="M342.81,232.24s10.92-7.57,18-5.58,10.67,12.55,10.67,12.55-.43-14.61-9.47-16.45S346.52,227.32,342.81,232.24Z" transform="translate(-11.71 -113.99)"/><path class="cls-16" d="M449.61,418.53c-.18,11.17-2.27,21.82-8.18,29.44a26.89,26.89,0,0,1-5.42,5.28,40.63,40.63,0,0,1-12,5.92c-24.42,7.73-58.66-1.78-78.83,0-15.56,1.39-30.4,7.33-44.86,7.09a39.62,39.62,0,0,1-22.59-7.09c-12.08-8.28-13.84-20.67-10.91-33.89,1.74,6.48,8.61,22.76,33.44,21.49,30.92-1.6,38.12-26.2,72.28-16s52.55,17.6,66,4A49.66,49.66,0,0,0,449.61,418.53Z" transform="translate(-11.71 -113.99)"/><path class="cls-16" d="M302.16,387.34s8.7,15.58,26.3,14.87,17.47-14.4,15.16-19,.12,4.31-5.61,6.43S314.83,397.8,302.16,387.34Z" transform="translate(-11.71 -113.99)"/><path class="cls-16" d="M372.72,380.11a12.92,12.92,0,0,0,2.41,11.95c4.67,5.41,26.95,7,32.89-5.37C408,386.69,393.64,396.48,372.72,380.11Z" transform="translate(-11.71 -113.99)"/><path class="cls-16" d="M315,351.43s26.13,1.07,41.73-13.89S375.77,304.88,378,308.8,362.4,382.41,291.13,362l2-13.53S304.41,353.86,315,351.43Z" transform="translate(-11.71 -113.99)"/><path class="cls-19" d="M424.05,459.17c-24.42,7.73-58.66-1.78-78.83,0-15.56,1.39-30.4,7.33-44.86,7.09a79.48,79.48,0,0,1,1.73-19.61c2.4-11.41,8-25.24,20.62-34,24.74-17.19,62-10.19,76.28,0,9.05,6.42,16.75,18.49,21.13,29.54C422.71,448.63,424.14,454.74,424.05,459.17Z" transform="translate(-11.71 -113.99)"/><path class="cls-20" d="M424.05,459.17c-24.42,7.73-58.66-1.78-78.83,0-15.56,1.39-30.4,7.33-44.86,7.09a79.48,79.48,0,0,1,1.73-19.61c29.43-2.43,37-25.89,70.49-15.9,20.94,6.24,36,11.44,47.54,11.41C422.71,448.63,424.14,454.74,424.05,459.17Z" transform="translate(-11.71 -113.99)"/><path class="cls-14" d="M301.19,468.76h-.87a42.22,42.22,0,0,1-23.95-7.52c-23.31-16-11.52-45,1.34-68.56a90.09,90.09,0,0,0,10.53-42.2c-20.45-7.47-54.7-37.24-70.46-61.54-12.82-19.76-23.68-66.57-12.6-81.51,2.44-3.28,7.08-6.69,15.37-4.3,5.35,1.55,10.37,2.76,15.35,3.69,23.73,4.49,47,2.76,75.53-5.59,1.3-.38,2.53-.71,3.75-1,33.38-7.92,59.56,10.28,64,13.66,18,.71,40.25-22.67,56.51-39.81,4.87-5.13,9.47-10,13.44-13.67,19.73-18.31,36-18.29,54.35.06,11.69,11.7,23.73,43.53,22.79,74.56-.71,23.38-8.63,42.41-22.9,55h0c-31.54,27.91-71.22,16-86.66,9.68,8.25,16.65,26.85,55.32,28.92,69.12.35,2.34.93,5.35,1.6,8.83,4.15,21.55,11.88,61.67-9.8,77.54a43.63,43.63,0,0,1-12.67,6.28c-15.65,5-35,3.06-52.12,1.4-10.19-1-19.83-1.94-27.24-1.27a155.59,155.59,0,0,0-19.67,3.47C317.7,466.92,309.35,468.76,301.19,468.76Zm-85.9-261.49a7.1,7.1,0,0,0-6.13,3.1c-9.64,13,1.22,58.07,12.77,75.87,15.42,23.77,50.48,54.09,69.48,60.08l1.61.51.11,1.68a92.94,92.94,0,0,1-11.07,46.54c-11.87,21.69-22.93,48.35-2.89,62.1a36.92,36.92,0,0,0,21.23,6.65c7.87.15,15.85-1.63,24.3-3.5a160.48,160.48,0,0,1,20.3-3.57c7.88-.71,17.73.25,28.16,1.27,16.63,1.62,35.47,3.46,50.15-1.19a38.82,38.82,0,0,0,11.24-5.55c19.15-14,11.8-52.13,7.86-72.61-.68-3.54-1.27-6.59-1.64-9-2.34-15.59-28.51-67.84-31.49-73.74l-3.54-7.09,6.83,3.63c2.07,1.09,50.9,26.4,87.56-6.05h0c16.7-14.79,20.77-36.16,21.23-51.49C522.23,206.1,511,175,500,164c-16.64-16.63-29.51-16.61-47.48.07-3.86,3.58-8.4,8.38-13.21,13.45-17.55,18.49-39.25,41.36-59.25,41.36-.65,0-1.31,0-2-.07l-.76-.06-.6-.48c-.26-.21-26.91-21.15-60.45-13.19-1.14.26-2.28.56-3.49.92-29.29,8.58-53.3,10.34-77.84,5.71-5.13-1-10.3-2.21-15.81-3.8A14.08,14.08,0,0,0,215.29,207.27Z" transform="translate(-11.71 -113.99)"/><path class="cls-17" d="M496.67,273.38c-10.17,13.14-62.79,43.27-89.09-13.58h0c1-.73,32.8-23.61,42-42,6.73-13.46,20.14-36.36,34.36-41h0c5.5-1.78,11.12-.81,16.53,4.49C519.9,200.32,506.86,260.22,496.67,273.38Z" transform="translate(-11.71 -113.99)"/><path class="cls-14" d="M330.23,231.48c-1.18,0-3.2-6.65-5.55-8.94a11.4,11.4,0,0,0-8.38-3.35c-7.23.2-12.71,7.07-13.72,6.44s4.1-10.12,13.6-10.73C330,214,331.42,231.48,330.23,231.48Z" transform="translate(-11.71 -113.99)"/><path class="cls-14" d="M371.6,239.21h-.12c-1.18-.07-1.58-13.6-11.8-15.12-10.45-1.56-15.78,8.59-16.87,8.15s6.4-14.05,17.5-12.4C371.61,221.53,372.73,239.21,371.6,239.21Z" transform="translate(-11.71 -113.99)"/><ellipse class="cls-17" cx="371.48" cy="260.2" rx="6.05" ry="14.11" transform="translate(17.69 444) rotate(-76.05)"/><path class="cls-14" d="M334.88,314.69c-.53,8.8-3.6,17.67-11.93,23.8-8.79,6.48-20.26,7-31.38,4.19-17.87-4.5-34.89-17.59-38.62-28.37,0,0,12.93,3.51,30-.12a73.19,73.19,0,0,0,12.9-4,78.08,78.08,0,0,0,8.69-4.23h0C321.4,296.42,329,284.09,329,284.09S335.82,299.29,334.88,314.69Z" transform="translate(-11.71 -113.99)"/><path class="cls-14" d="M328.59,286.53c-2.57-.43-7.22,2.13-8.13,1.11s4-6.82,8.94-6,9.39,11,8.08,11.34C337.25,293.05,331.72,287.05,328.59,286.53Z" transform="translate(-11.71 -113.99)"/><path class="cls-21" d="M305.35,316.65c-1.06,2.76-7,7-13.37,6.79-4.21-.15-6.8-4.13-8.08-6.82,1.19-.18,2.41-.4,3.65-.67a63.18,63.18,0,0,0,10.85-3.37,65,65,0,0,0,6.79-3.29C305.59,311.81,306,315.07,305.35,316.65Z" transform="translate(-11.71 -113.99)"/><path class="cls-22" d="M331.33,315c0,.47,0,.94-.06,1.42-.44,7.4-3,14.87-10,20-7.4,5.44-17,5.89-26.41,3.52q-1-.26-2-.57c1.85-4.45,5.93-12.24,12.9-15.91l-1.17,7.81c.29-.55,4.86-9.42,11.45-12.7C320.42,316.32,327.21,315.35,331.33,315Z" transform="translate(-11.71 -113.99)"/><path class="cls-14" d="M321.9,396.35c-6.58,0-20.53-7.9-19.74-9s17.29,8.22,29.78,2.44c3.62-1.68,6.23-3.4,6.75-5.77,1.65-7.54-28.24-18.22-27.83-19.53s35.6,9.22,32.62,20.77c-1,4-4.52,7.23-9.84,9.18A34.89,34.89,0,0,1,321.9,396.35Z" transform="translate(-11.71 -113.99)"/><path class="cls-14" d="M379.39,388.19c-3.45-2.22-5.9-4.78-6.67-8.08-2.6-11.16,31.67-22.39,32.11-21.1s-29,12.9-27.29,20c.45,1.93,2.29,3,4.25,4.88,7.75,7.39,25.78,1.54,26.23,2.83S391,395.66,379.39,388.19Z" transform="translate(-11.71 -113.99)"/><path class="cls-17" d="M324.16,463c-6.11,7.3-24.66,12.66-42.57,15.05-15.8,2.09-31.09,1.86-36.91-1.42-7.12-4,3.33-10.41,13.54-15.12,7.55-3.51,15-6.08,15-6.08a30.26,30.26,0,0,0,4.58,3.81,39.62,39.62,0,0,0,22.59,7.09C308.17,466.41,316.08,464.73,324.16,463Z" transform="translate(-11.71 -113.99)"/><path class="cls-18" d="M300.36,466.28c7.81.13,15.72-1.55,23.8-3.33-6.11,7.3-24.66,12.66-42.57,15.05a38.34,38.34,0,0,1-23.37-16.54c7.55-3.51,15-6.08,15-6.08a30.26,30.26,0,0,0,4.58,3.81A39.62,39.62,0,0,0,300.36,466.28Z" transform="translate(-11.71 -113.99)"/><path class="cls-14" d="M262.32,481.84c-7.84,0-14.87-.85-18.86-3.1-3.22-1.82-3.72-4.11-3.58-5.71.75-8.34,25.07-17.41,32.5-20l1.49-.51,1.09,1.12a28.34,28.34,0,0,0,4.21,3.5,36.92,36.92,0,0,0,21.23,6.65c7.21.13,14.49-1.34,23.23-3.26l7.1-1.57-4.67,5.57c-8.22,9.81-33.41,14.3-40.93,15.45A157.77,157.77,0,0,1,262.32,481.84Zm10.25-23.62c-14.68,5.26-27.49,12.26-27.76,15.25,0,.14.31.53,1.08,1,5.28,3,21.47,3.25,38.5.66,11.17-1.69,20.86-4.26,27.85-7.26a69.38,69.38,0,0,1-11.92.92,42.22,42.22,0,0,1-23.95-7.52A33.76,33.76,0,0,1,272.57,458.22Z" transform="translate(-11.71 -113.99)"/><path class="cls-17" d="M465.81,475.63a59.59,59.59,0,0,1-27.26-.29,82.12,82.12,0,0,1-29-13.46h0a65.32,65.32,0,0,0,14.54-2.7,40.63,40.63,0,0,0,12-5.92,27.1,27.1,0,0,0,6.28-6.46s5.53,2.26,12,5.56C468,459.31,486.1,470.88,465.81,475.63Z" transform="translate(-11.71 -113.99)"/><path class="cls-18" d="M454.32,452.35c-2.41,8.46-8.27,18.22-15.77,23a82.12,82.12,0,0,1-29-13.46h0a65.32,65.32,0,0,0,14.54-2.7,40.63,40.63,0,0,0,12-5.92,27.1,27.1,0,0,0,6.28-6.46S447.82,449.05,454.32,452.35Z" transform="translate(-11.71 -113.99)"/><path class="cls-14" d="M453,479.57c-24.7,0-44.1-15-45-15.74l-.94-.74V459.6l2.27-.19a62.87,62.87,0,0,0,14-2.6,38.82,38.82,0,0,0,11.24-5.55,25.14,25.14,0,0,0,5.71-5.88l1.13-1.63,1.83.75c8.22,3.36,34.95,15.1,34.14,25.29-.46,5.79-8.38,7.64-11,8.25h0A58.26,58.26,0,0,1,453,479.57Zm-36.6-16.05c9,5.41,28.18,14.53,48.81,9.7h0c5.17-1.21,7.1-2.77,7.19-3.82.33-4.24-14.57-13.33-29.31-19.59a29.07,29.07,0,0,1-5.65,5.44,43.63,43.63,0,0,1-12.67,6.28A61.77,61.77,0,0,1,416.43,463.52Z" transform="translate(-11.71 -113.99)"/><path class="cls-14" d="M405.74,288.79s-12-6.77-11.2-4.7,22.21,15.67,22.21,15.67Z" transform="translate(-11.71 -113.99)"/><path class="cls-14" d="M293,346.83a89.58,89.58,0,0,0,19.75,4.29c12.09,1.38-13.52,2.09-24.53-.65Z" transform="translate(-11.71 -113.99)"/><path class="cls-14" d="M476.42,180.91a1,1,0,0,1,1.28,1.4c-9.9,11-15.91,29.74-26.84,47.15-9.32,14.84-27.4,24-37,28a1,1,0,0,1-.95-1.64c9.67-7.47,29.68-24,36.65-38C455.11,206.75,465.13,189.33,476.42,180.91Z" transform="translate(-11.71 -113.99)"/><ellipse class="cls-16" cx="237.5" cy="272.98" rx="14.42" ry="31.09" transform="translate(-123.59 64.88) rotate(-33.9)"/><path class="cls-14" d="M236.86,221.49a2.47,2.47,0,1,1,1.27-4.78s78.33,21.81,78,23.13C315.82,241,236.86,221.49,236.86,221.49Z" transform="translate(-11.71 -113.99)"/><path class="cls-14" d="M231.69,226.46a2.47,2.47,0,1,1,2.55-4.24s78.18,48.29,77.48,49.46C311.26,272.45,231.69,226.46,231.69,226.46Z" transform="translate(-11.71 -113.99)"/><path class="cls-14" d="M385.37,186.08c-1.18.09-6.37-14.8-28.44-21.09-22.65-6.46-44.68,3.34-45.3,2.12s22.07-13.89,46.65-6.88c25,7.13,28.84,25.44,27.52,25.78A2.26,2.26,0,0,1,385.37,186.08Z" transform="translate(-11.71 -113.99)"/><path class="cls-14" d="M333,176.63h-.21a2.46,2.46,0,0,1-2.45-2.5c.12-11.94,17.38-25.19,18.26-24.14s-13.21,14.52-13.31,24.2A2.49,2.49,0,0,1,333,176.63Z" transform="translate(-11.71 -113.99)"/><path class="cls-14" d="M361.2,182.23a2.09,2.09,0,0,1-.25,0,2.47,2.47,0,0,1-2.42-2.53c.32-13.76,13.79-23.15,14.64-22.07s-9.43,10.8-9.69,22.19A2.48,2.48,0,0,1,361.2,182.23Z" transform="translate(-11.71 -113.99)"/><ellipse class="cls-14" cx="204.12" cy="99.78" rx="25.88" ry="13.36"/><path class="cls-21" d="M213.23,205.54c.75,2.22-2.14,5.19-6.44,6.63s-8.39.81-9.14-1.41,2.14-5.19,6.45-6.64S212.49,203.32,213.23,205.54Z" transform="translate(-11.71 -113.99)"/></svg>